HIERARCHY
ROOT Hips
{
	OFFSET	0.00	0.00	0.00
	CHANNELS 6 Xposition Yposition Zposition Zrotation Xrotation Yrotation
	JOINT LeftUpLeg
	{
		OFFSET	 0.126116	-0.014019	-0.065224
		CHANNELS 3 Zrotation Xrotation Yrotation
		JOINT LeftLeg
		{
			OFFSET	 0.000000	 0.000000	 0.569914
			CHANNELS 3 Zrotation Xrotation Yrotation
			JOINT LeftFoot
			{
				OFFSET	 0.000000	 0.000000	 0.544423
				CHANNELS 3 Zrotation Xrotation Yrotation
				JOINT LeftToeBase
				{
					OFFSET	 0.000000	 0.000000	 0.207117
					CHANNELS 3 Zrotation Xrotation Yrotation
					End Site
					{
						OFFSET	 0.000000	 0.000000	 0.207117
					}
				}
			}
		}
	}
	JOINT RightUpLeg
	{
		OFFSET	-0.124023	-0.008373	-0.065224
		CHANNELS 3 Zrotation Xrotation Yrotation
		JOINT RightLeg
		{
			OFFSET	 0.000000	 0.000000	 0.570047
			CHANNELS 3 Zrotation Xrotation Yrotation
			JOINT RightFoot
			{
				OFFSET	 0.000000	 0.000000	 0.544354
				CHANNELS 3 Zrotation Xrotation Yrotation
				JOINT RightToeBase
				{
					OFFSET	 0.000000	 0.000000	 0.207540
					CHANNELS 3 Zrotation Xrotation Yrotation
					End Site
					{
						OFFSET	 0.000000	 0.000000	 0.207540
					}
				}
			}
		}
	}
	JOINT Spine
	{
		OFFSET	 0.000184	-0.007763	 0.117403
		CHANNELS 3 Zrotation Xrotation Yrotation
		JOINT Spine1
		{
			OFFSET	 0.000000	 0.000000	 0.137269
			CHANNELS 3 Zrotation Xrotation Yrotation
			JOINT Spine2
			{
				OFFSET	 0.000000	 0.000000	 0.156879
				CHANNELS 3 Zrotation Xrotation Yrotation
				JOINT LeftShoulder
				{
					OFFSET	 0.080501	-0.002496	 0.160144
					CHANNELS 3 Zrotation Xrotation Yrotation
					JOINT LeftArm
					{
						OFFSET	 0.000000	 0.000000	 0.164363
						CHANNELS 3 Zrotation Xrotation Yrotation
						JOINT LeftForeArm
						{
							OFFSET	 0.000000	 0.000000	 0.364576
							CHANNELS 3 Zrotation Xrotation Yrotation
							JOINT LeftHand
							{
								OFFSET	 0.000000	 0.000000	 0.360812
								CHANNELS 3 Zrotation Xrotation Yrotation
								JOINT LeftHandIndex1
								{
									OFFSET	 0.000000	 0.000000	 0.086006
									CHANNELS 3 Zrotation Xrotation Yrotation
									JOINT LeftHandIndex2
									{
										OFFSET	 0.000000	 0.000000	 0.047236
										CHANNELS 3 Zrotation Xrotation Yrotation
										JOINT LeftHandIndex3
										{
											OFFSET	-0.004284	-0.000551	 0.038166
											CHANNELS 3 Zrotation Xrotation Yrotation
											End Site
											{
												OFFSET	-0.004284	-0.000551	 0.038166
											}
										}
									}
								}
							}
						}
					}
				}
				JOINT Neck
				{
					OFFSET	 0.000000	 0.000000	 0.176489
					CHANNELS 3 Zrotation Xrotation Yrotation
					JOINT Head
					{
						OFFSET	 0.000000	-0.001747	 0.077940
						CHANNELS 3 Zrotation Xrotation Yrotation
						End Site
						{
							OFFSET	 0.000000	-0.001747	 0.077940
						}
					}
				}
				JOINT RightShoulder
				{
					OFFSET	-0.080363	 0.000306	 0.159706
					CHANNELS 3 Zrotation Xrotation Yrotation
					JOINT RightArm
					{
						OFFSET	 0.000000	 0.000000	 0.164196
						CHANNELS 3 Zrotation Xrotation Yrotation
						JOINT RightForeArm
						{
							OFFSET	 0.000000	 0.000000	 0.365611
							CHANNELS 3 Zrotation Xrotation Yrotation
							JOINT RightHand
							{
								OFFSET	 0.000000	 0.000000	 0.360648
								CHANNELS 3 Zrotation Xrotation Yrotation
								JOINT RightHandIndex1
								{
									OFFSET	 0.000000	 0.000000	 0.069977
									CHANNELS 3 Zrotation Xrotation Yrotation
									JOINT RightHandIndex2
									{
										OFFSET	 0.000000	 0.000000	 0.052305
										CHANNELS 3 Zrotation Xrotation Yrotation
										JOINT RightHandIndex3
										{
											OFFSET	 0.009002	-0.000782	 0.042196
											CHANNELS 3 Zrotation Xrotation Yrotation
											End Site
											{
												OFFSET	 0.009002	-0.000782	 0.042196
											}
										}
									}
								}
							}
						}
					}
				}
			}
		}
	}
}
MOTION
Frames:    4
Frame Time: 0.03333334
-0.102291	 3.014296	 0.577348	-10.263400	-2.062650	-1.254686	 7.357024	 21.334800	-176.942600	-3.512078	-11.628500	 1.504017	 3.884841	 84.434160	-0.405110	-2.289508	 40.735290	-0.295518	 5.246803	-35.975960	-177.583600	 0.268619	-40.709780	 4.351505	 138.683300	 89.675550	-133.209500	 2.366934	 31.764990	 0.074837	 2.034600	 3.433218	 2.234139	 3.963073	-1.680057	 1.038911	 4.994476	-4.249612	-0.033714	-91.776180	 78.527400	-180.000000	 35.969140	 60.506000	-54.271770	-15.275240	 0.680987	-42.239100	 3.491794	-4.970053	-5.381417	-3.812334	 37.924440	-2.927599	-2.450526	 36.184240	 0.754587	-1.378229	 35.397820	-2.634230	 1.226262	 2.175123	-4.970215	 2.554115	-9.277919	 3.990836	 89.782120	 78.203870	 180.000000	-37.329540	 72.415860	 34.696760	 7.715529	-2.880420	 27.875120	-13.253080	-6.083516	 9.595869	 6.437017	 35.671460	-0.771858	 2.830251	 35.756010	-7.813440	-2.350882	 35.473990	 5.254307
-0.113499	 2.963977	 0.575602	-9.786713	-1.919535	-1.321118	 7.577263	 23.484010	-177.485900	-3.208051	-11.617630	 1.586468	 4.608324	 84.105690	-0.719785	-2.248702	 43.813430	-0.383039	 5.101989	-36.031170	-177.407400	-0.192916	-37.976570	 3.659753	 153.035100	 89.362040	-147.842800	 2.360471	 32.776640	 0.098043	 1.461146	 3.270438	 2.006096	 3.157764	-1.785920	 0.873383	 4.129275	-4.322661	-0.172903	-91.776180	 78.527400	-180.000000	 36.845290	 60.794460	-55.111610	-15.336880	 0.715714	-42.592940	 3.488998	-4.967555	-5.381888	-3.812334	 37.924440	-2.927599	-2.450526	 36.184240	 0.754587	-1.378229	 35.397820	-2.634230	 1.240220	 2.090230	-5.018077	 2.376924	-9.316293	 4.447453	 89.782100	 78.203850	-180.000000	-36.158280	 73.027180	 33.383970	 7.906302	-2.894192	 26.882500	-13.719680	-6.098917	 9.584743	 6.437017	 35.671460	-0.771858	 2.830251	 35.756010	-7.813440	-2.350882	 35.473990	 5.254307
-0.127622	 2.905907	 0.573640	-9.257034	-2.025102	-1.322114	 7.968426	 25.937770	-178.555100	-2.475199	-11.596390	 1.736318	 5.465077	 82.546890	-0.762123	-2.204418	 46.570550	-0.468259	 4.868978	-35.460120	-177.535800	 0.583127	-38.159950	 4.065660	 132.088500	 89.654520	-126.422800	 2.367798	 31.622760	 0.071600	 0.829873	 3.141199	 1.863400	 2.274944	-1.846058	 0.628207	 3.229141	-4.248052	-0.354892	-91.776180	 78.527400	 180.000000	 38.248120	 61.480500	-55.895390	-15.441580	 0.724045	-42.122050	 3.506284	-4.971041	-5.381251	-3.812334	 37.924440	-2.927599	-2.450526	 36.184240	 0.754587	-1.378229	 35.397820	-2.634230	 1.323519	 2.147063	-5.068980	 2.221380	-9.376610	 4.835204	 89.782100	 78.203870	-180.000000	-35.274280	 73.500300	 32.415090	 7.912634	-2.896172	 25.811600	-14.223550	-6.117259	 9.570752	 6.437017	 35.671460	-0.771858	 2.830251	 35.756010	-7.813440	-2.350882	 35.473990	 5.254307
-0.143759	 2.843826	 0.571575	-8.683378	-2.159248	-1.262116	 8.498487	 28.402630	 179.951200	-1.614734	-11.573330	 1.885732	 5.891659	 79.407040	-0.255788	-2.148606	 49.461410	-0.566170	 4.673276	-34.045800	-177.927000	 1.879832	-40.108600	 5.090085	 20.112170	 89.422900	-13.660380	 2.378877	 29.614270	 0.026736	 0.121246	 2.910155	 1.807595	 1.333597	-1.883582	 0.335800	 2.356610	-4.018462	-0.591191	-91.776180	 78.527400	-180.000000	 39.891880	 62.507540	-56.122960	-15.529740	 0.707369	-40.851630	 3.537713	-4.950819	-5.384926	-3.812334	 37.924440	-2.927599	-2.450526	 36.184240	 0.754587	-1.378229	 35.397820	-2.634230	 1.468894	 2.495564	-5.131364	 2.089247	-9.537436	 5.140102	 89.782120	 78.203870	 180.000000	-34.150510	 73.861310	 31.078360	 7.873672	-2.883864	 24.876480	-14.663480	-6.132942	 9.557533	 6.437017	 35.671460	-0.771858	 2.830251	 35.756010	-7.813440	-2.350882	 35.473990	 5.254307
